<?xml version="1.0" encoding="utf-8" ?>
<svg xmlns="http://www.w3.org/2000/svg" xmlns:xlink="http://www.w3.org/1999/xlink" width="68" height="1088" viewBox="0 0 68 1088">
	<defs>
		<linearGradient id="linearGradient8083980946" gradientTransform="matrix(2.44929e-16 1088 -4 6.66208e-14 4 0)" gradientUnits="userSpaceOnUse" x1="0" y1="0.5" x2="1" y2="0.5">
			<stop offset="0" stop-color="rgb(34, 197, 94)"/>
			<stop offset="1" stop-color="rgb(59, 130, 246)"/>
		</linearGradient>
	</defs>
	<rect width="4" height="1088" transform="matrix(1 0 0 1 32 0)" fill="url(#linearGradient8083980946)"/>
	<defs>
		<linearGradient id="linearGradient3934832226" gradientTransform="matrix(64 0 0 64 0 0)" gradientUnits="userSpaceOnUse" x1="0" y1="0.5" x2="1" y2="0.5">
			<stop offset="0" stop-color="rgb(34, 197, 94)"/>
			<stop offset="1" stop-color="rgb(22, 163, 74)"/>
		</linearGradient>
	</defs>
	<path d="M32 0C14.3269 0 0 14.3269 0 32L0 32.048C0 49.7211 14.2789 64 31.952 64L32 64C49.6731 64 64 49.7211 64 32.048L64 32C64 14.3269 49.7211 0 32.048 0L32 0Z" fill-rule="nonzero" transform="matrix(1 0 0 1 0 194)" fill="url(#linearGradient3934832226)"/>
	<defs>
		<clipPath id="clipPath2291003507">
			<path d="M0 0L32 0L32 32L0 32L0 0Z" fill-rule="nonzero" transform="matrix(1 0 0 1 16 210)"/>
		</clipPath>
	</defs>
	<g clip-path="url(#clipPath2291003507)">
		<defs>
			<clipPath id="clipPath7249632606">
				<path d="M0 0L32 0L32 32L0 32L0 0Z" fill-rule="nonzero" transform="matrix(1 0 0 1 16 210)"/>
			</clipPath>
		</defs>
		<g clip-path="url(#clipPath7249632606)">
			<path d="M11.535 16.369C11.737 17.2438 10.7774 17.9087 10.0308 17.442L7.48479 15.851L4.30561 20.9387C3.47536 22.2671 4.43498 24 6.00073 24L9.24998 24C9.66417 24 9.99998 24.3358 9.99998 24.75L9.99998 27.25C9.99998 27.6642 9.66417 28 9.24998 28L6.00717 28C1.29879 28 -1.57421 22.8095 0.919168 18.82L4.09554 13.7333L1.55023 12.1428C0.795168 11.6711 0.989855 10.5202 1.85517 10.3204L8.74498 8.72978C9.28317 8.60553 9.82004 8.94109 9.94429 9.47916L11.535 16.369ZM17.6951 4.93678L20.2757 9.06653L17.7294 10.6576C16.9762 11.1281 17.1669 12.2797 18.0344 12.48L24.9242 14.0706C25.4662 14.1955 26.0001 13.8557 26.1235 13.3212L27.7141 6.43141C27.9139 5.56616 26.9647 4.88647 26.2099 5.35841L23.6669 6.94741L21.088 2.81728C18.7429 -0.93478 13.2624 -0.943405 10.912 2.81728L9.7893 4.61516C9.56992 4.96641 9.6768 5.42897 10.028 5.64847L12.148 6.97316C12.4992 7.19266 12.962 7.08584 13.1815 6.73459L14.304 4.93816C15.0985 3.66684 16.9274 3.70841 17.6951 4.93678ZM31.0805 18.82L29.3608 16.066C29.1414 15.7145 28.6785 15.6076 28.3272 15.8272L26.2109 17.1496C25.8596 17.3691 25.7527 17.8318 25.9722 18.1831L27.695 20.9401C28.5235 22.2658 27.5664 24.0001 25.999 24.0001L20 24.0001L20 21.0013C20 20.113 18.9224 19.6648 18.2929 20.2942L13.2929 25.293C12.9024 25.6835 12.9024 26.3167 13.2929 26.7072L18.2929 31.7065C18.918 32.3318 20 31.8938 20 30.9993L20 28L25.9925 28C30.6971 28 33.5759 22.8127 31.0805 18.82Z" fill-rule="nonzero" transform="matrix(1 0 0 1 16 210)" fill="rgb(255, 255, 255)"/>
		</g>
	</g>
	<defs>
		<linearGradient id="linearGradient7732345691" gradientTransform="matrix(64 0 0 64 0 0)" gradientUnits="userSpaceOnUse" x1="0" y1="0.5" x2="1" y2="0.5">
			<stop offset="0" stop-color="rgb(59, 130, 246)"/>
			<stop offset="1" stop-color="rgb(37, 99, 235)"/>
		</linearGradient>
	</defs>
	<path d="M32 0C14.3269 0 0 14.3269 0 32L0 32.048C0 49.7211 14.2789 64 31.952 64L32 64C49.6731 64 64 49.7211 64 32.048L64 32C64 14.3269 49.7211 0 32.048 0L32 0Z" fill-rule="nonzero" transform="matrix(1 0 0 1 4 512)" fill="url(#linearGradient7732345691)"/>
	<defs>
		<clipPath id="clipPath2511206890">
			<path d="M0 0L32 0L32 32L0 32L0 0Z" fill-rule="nonzero" transform="matrix(1 0 0 1 20 528)"/>
		</clipPath>
	</defs>
	<g clip-path="url(#clipPath2511206890)">
		<defs>
			<clipPath id="clipPath2891706998">
				<path d="M0 0L32 0L32 32L0 32L0 0Z" fill-rule="nonzero" transform="matrix(1 0 0 1 20 528)"/>
			</clipPath>
		</defs>
		<g clip-path="url(#clipPath2891706998)">
			<path d="M29.6947 8.23631L21 13.7693L21 9.50181C21 8.31956 19.6918 7.60188 18.6947 8.23631L10 13.7693L10 1.5C10 0.671562 9.32844 0 8.5 0L1.5 0C0.671562 0 0 0.671562 0 1.5L0 26.5C0 27.3284 0.671562 28 1.5 28L30.5 28C31.3284 28 32 27.3284 32 26.5L32 9.50181C32 8.3195 30.6918 7.60188 29.6947 8.23631Z" fill-rule="nonzero" transform="matrix(1 0 0 1 20 530)" fill="rgb(255, 255, 255)"/>
		</g>
	</g>
	<defs>
		<linearGradient id="linearGradient0684417084" gradientTransform="matrix(64 0 0 64 0 0)" gradientUnits="userSpaceOnUse" x1="0" y1="0.5" x2="1" y2="0.5">
			<stop offset="0" stop-color="rgb(240, 177, 6)"/>
			<stop offset="1" stop-color="rgb(240, 177, 6)"/>
		</linearGradient>
	</defs>
	<path d="M32 0C14.3269 0 0 14.3269 0 32L0 32.048C0 49.7211 14.2789 64 31.952 64L32 64C49.6731 64 64 49.7211 64 32.048L64 32C64 14.3269 49.7211 0 32.048 0L32 0Z" fill-rule="nonzero" transform="matrix(1 0 0 1 4 843)" fill="url(#linearGradient0684417084)"/>
	<defs>
		<clipPath id="clipPath1624618093">
			<path d="M0 0L32 0L32 32L0 32L0 0Z" fill-rule="nonzero" transform="matrix(1 0 0 1 20 859)"/>
		</clipPath>
	</defs>
	<g clip-path="url(#clipPath1624618093)">
		<defs>
			<clipPath id="clipPath2911950497">
				<path d="M0 0L32 0L32 32L0 32L0 0Z" fill-rule="nonzero" transform="matrix(1 0 0 1 20 859)"/>
			</clipPath>
		</defs>
		<g clip-path="url(#clipPath2911950497)">
			<path d="M30.5 8L30 8L30 5C30 2.2 23.8 0 16 0C8.2 0 2 2.2 2 5L2 8L1.5 8C0.671875 8 0 8.67125 0 9.5L0 14.5C0 15.3281 0.671875 16 1.5 16L2 16L2 26C2 27.1044 2.89563 28 4 28L4 30C4 31.1044 4.89563 32 6 32L8 32C9.10437 32 10 31.1044 10 30L10 28L22 28L22 30C22 31.1044 22.8956 32 24 32L26 32C27.1044 32 28 31.1044 28 30L28 28L28.4 28C29.4 28 30 27.2 30 26.4L30 16L30.5 16C31.3281 16 32 15.3281 32 14.5L32 9.5C32 8.67125 31.3281 8 30.5 8ZM7 25C5.89563 25 5 24.1044 5 23C5 21.8956 5.89563 21 7 21C8.10437 21 9 21.8956 9 23C9 24.1044 8.10437 25 7 25ZM8 18C6.89563 18 6 17.1044 6 16L6 8C6 6.89563 6.89563 6 8 6L24 6C25.1044 6 26 6.89563 26 8L26 16C26 17.1044 25.1044 18 24 18L8 18ZM25 25C23.8956 25 23 24.1044 23 23C23 21.8956 23.8956 21 25 21C26.1044 21 27 21.8956 27 23C27 24.1044 26.1044 25 25 25Z" fill-rule="nonzero" transform="matrix(1 0 0 1 20 859)" fill="rgb(255, 255, 255)"/>
		</g>
	</g>
</svg>
